<mxfile host="app.diagrams.net" modified="2023-03-28T06:09:35.627Z" agent="Mozilla/5.0 (Windows NT 10.0; Win64; x64) AppleWebKit/537.36 (KHTML, like Gecko) Chrome/111.0.0.0 Safari/537.36" etag="uAK1vmT7YR2-7yUX79Pw" version="21.1.1" type="device">
  <diagram name="PÃ¡gina-1" id="OSEzmBCUuLc0qB1-GDmr">
    <mxGraphModel dx="1034" dy="430" grid="1" gridSize="10" guides="1" tooltips="1" connect="1" arrows="1" fold="1" page="1" pageScale="1" pageWidth="827" pageHeight="1169" math="0" shadow="0">
      <root>
        <mxCell id="0" />
        <mxCell id="1" parent="0" />
        <mxCell id="RVhePkTrO8jCvcdKn89n-19" style="edgeStyle=orthogonalEdgeStyle;rounded=0;orthogonalLoop=1;jettySize=auto;html=1;entryX=0.444;entryY=0.986;entryDx=0;entryDy=0;entryPerimeter=0;fontSize=16;shadow=0;" parent="1" source="RVhePkTrO8jCvcdKn89n-1" target="RVhePkTrO8jCvcdKn89n-2" edge="1">
          <mxGeometry relative="1" as="geometry" />
        </mxCell>
        <mxCell id="RVhePkTrO8jCvcdKn89n-25" style="edgeStyle=orthogonalEdgeStyle;curved=1;rounded=0;sketch=0;orthogonalLoop=1;jettySize=auto;html=1;exitX=1;exitY=0.5;exitDx=0;exitDy=0;entryX=0;entryY=0.302;entryDx=0;entryDy=0;entryPerimeter=0;shadow=0;fontSize=16;" parent="1" source="RVhePkTrO8jCvcdKn89n-1" target="RVhePkTrO8jCvcdKn89n-3" edge="1">
          <mxGeometry relative="1" as="geometry" />
        </mxCell>
        <mxCell id="RVhePkTrO8jCvcdKn89n-26" style="edgeStyle=orthogonalEdgeStyle;curved=1;rounded=0;sketch=0;orthogonalLoop=1;jettySize=auto;html=1;exitX=1;exitY=0.5;exitDx=0;exitDy=0;entryX=0;entryY=0.5;entryDx=0;entryDy=0;shadow=0;fontSize=16;" parent="1" source="RVhePkTrO8jCvcdKn89n-1" target="RVhePkTrO8jCvcdKn89n-4" edge="1">
          <mxGeometry relative="1" as="geometry" />
        </mxCell>
        <mxCell id="RVhePkTrO8jCvcdKn89n-27" style="edgeStyle=orthogonalEdgeStyle;curved=1;rounded=0;sketch=0;orthogonalLoop=1;jettySize=auto;html=1;exitX=1;exitY=0.5;exitDx=0;exitDy=0;entryX=0;entryY=0.5;entryDx=0;entryDy=0;shadow=0;fontSize=16;" parent="1" source="RVhePkTrO8jCvcdKn89n-1" target="RVhePkTrO8jCvcdKn89n-5" edge="1">
          <mxGeometry relative="1" as="geometry" />
        </mxCell>
        <mxCell id="RVhePkTrO8jCvcdKn89n-33" style="edgeStyle=orthogonalEdgeStyle;curved=1;rounded=0;sketch=0;orthogonalLoop=1;jettySize=auto;html=1;exitX=1;exitY=1;exitDx=0;exitDy=0;entryX=0;entryY=0.5;entryDx=0;entryDy=0;shadow=0;fontSize=16;" parent="1" source="RVhePkTrO8jCvcdKn89n-1" target="RVhePkTrO8jCvcdKn89n-7" edge="1">
          <mxGeometry relative="1" as="geometry" />
        </mxCell>
        <mxCell id="RVhePkTrO8jCvcdKn89n-34" style="edgeStyle=orthogonalEdgeStyle;curved=1;rounded=0;sketch=0;orthogonalLoop=1;jettySize=auto;html=1;exitX=1;exitY=1;exitDx=0;exitDy=0;entryX=0;entryY=0.5;entryDx=0;entryDy=0;shadow=0;fontSize=16;" parent="1" source="RVhePkTrO8jCvcdKn89n-1" target="RVhePkTrO8jCvcdKn89n-11" edge="1">
          <mxGeometry relative="1" as="geometry" />
        </mxCell>
        <mxCell id="RVhePkTrO8jCvcdKn89n-35" style="edgeStyle=orthogonalEdgeStyle;curved=1;rounded=0;sketch=0;orthogonalLoop=1;jettySize=auto;html=1;exitX=1;exitY=1;exitDx=0;exitDy=0;entryX=0;entryY=0.5;entryDx=0;entryDy=0;shadow=0;fontSize=16;" parent="1" source="RVhePkTrO8jCvcdKn89n-1" target="RVhePkTrO8jCvcdKn89n-12" edge="1">
          <mxGeometry relative="1" as="geometry" />
        </mxCell>
        <mxCell id="RVhePkTrO8jCvcdKn89n-36" style="edgeStyle=orthogonalEdgeStyle;curved=1;rounded=0;sketch=0;orthogonalLoop=1;jettySize=auto;html=1;exitX=1;exitY=1;exitDx=0;exitDy=0;entryX=0;entryY=0.5;entryDx=0;entryDy=0;shadow=0;fontSize=16;" parent="1" source="RVhePkTrO8jCvcdKn89n-1" target="RVhePkTrO8jCvcdKn89n-13" edge="1">
          <mxGeometry relative="1" as="geometry" />
        </mxCell>
        <mxCell id="RVhePkTrO8jCvcdKn89n-50" style="edgeStyle=orthogonalEdgeStyle;curved=1;rounded=0;sketch=0;orthogonalLoop=1;jettySize=auto;html=1;exitX=0.5;exitY=1;exitDx=0;exitDy=0;entryX=1;entryY=0.5;entryDx=0;entryDy=0;shadow=0;fontSize=16;" parent="1" source="RVhePkTrO8jCvcdKn89n-1" target="RVhePkTrO8jCvcdKn89n-15" edge="1">
          <mxGeometry relative="1" as="geometry" />
        </mxCell>
        <mxCell id="RVhePkTrO8jCvcdKn89n-51" style="edgeStyle=orthogonalEdgeStyle;curved=1;rounded=0;sketch=0;orthogonalLoop=1;jettySize=auto;html=1;exitX=0.5;exitY=1;exitDx=0;exitDy=0;entryX=1;entryY=0.5;entryDx=0;entryDy=0;shadow=0;fontSize=16;" parent="1" source="RVhePkTrO8jCvcdKn89n-1" target="RVhePkTrO8jCvcdKn89n-14" edge="1">
          <mxGeometry relative="1" as="geometry" />
        </mxCell>
        <mxCell id="RVhePkTrO8jCvcdKn89n-52" style="edgeStyle=orthogonalEdgeStyle;curved=1;rounded=0;sketch=0;orthogonalLoop=1;jettySize=auto;html=1;exitX=0.5;exitY=1;exitDx=0;exitDy=0;entryX=1;entryY=0.5;entryDx=0;entryDy=0;shadow=0;fontSize=16;" parent="1" source="RVhePkTrO8jCvcdKn89n-1" target="RVhePkTrO8jCvcdKn89n-16" edge="1">
          <mxGeometry relative="1" as="geometry" />
        </mxCell>
        <mxCell id="RVhePkTrO8jCvcdKn89n-53" style="edgeStyle=orthogonalEdgeStyle;curved=1;rounded=0;sketch=0;orthogonalLoop=1;jettySize=auto;html=1;exitX=0.5;exitY=1;exitDx=0;exitDy=0;entryX=1;entryY=0.5;entryDx=0;entryDy=0;shadow=0;fontSize=16;" parent="1" source="RVhePkTrO8jCvcdKn89n-1" target="RVhePkTrO8jCvcdKn89n-17" edge="1">
          <mxGeometry relative="1" as="geometry" />
        </mxCell>
        <mxCell id="RVhePkTrO8jCvcdKn89n-62" style="edgeStyle=orthogonalEdgeStyle;curved=1;rounded=0;sketch=0;orthogonalLoop=1;jettySize=auto;html=1;exitX=0;exitY=0;exitDx=0;exitDy=0;shadow=0;fontSize=13.3333;" parent="1" source="RVhePkTrO8jCvcdKn89n-1" target="RVhePkTrO8jCvcdKn89n-18" edge="1">
          <mxGeometry relative="1" as="geometry" />
        </mxCell>
        <mxCell id="RVhePkTrO8jCvcdKn89n-1" value="&lt;font style=&quot;font-size: 16px;&quot;&gt;{X&lt;sub&gt;c&lt;/sub&gt;, X&lt;sub&gt;c-1&lt;/sub&gt;, ..., X&lt;sub&gt;1&lt;/sub&gt;, X&lt;sub&gt;0&lt;/sub&gt;}&lt;/font&gt;" style="ellipse;whiteSpace=wrap;html=1;fillColor=#e3c800;fontColor=#000000;strokeColor=#B09500;" parent="1" vertex="1">
          <mxGeometry x="280" y="280" width="170" height="40" as="geometry" />
        </mxCell>
        <mxCell id="RVhePkTrO8jCvcdKn89n-2" value="&lt;font style=&quot;font-size: 16px;&quot;&gt;{X&lt;sub style=&quot;border-color: var(--border-color);&quot;&gt;c&lt;/sub&gt;, X&lt;sub style=&quot;border-color: var(--border-color);&quot;&gt;c-1&lt;/sub&gt;, ..., X&lt;sub style=&quot;border-color: var(--border-color);&quot;&gt;1&lt;/sub&gt;, X&lt;sub style=&quot;border-color: var(--border-color);&quot;&gt;0 &lt;/sub&gt;&lt;span style=&quot;border-color: var(--border-color);&quot;&gt;+1&lt;/span&gt;}&lt;/font&gt;" style="ellipse;whiteSpace=wrap;html=1;fontSize=23;fillColor=#fff2cc;strokeColor=#d6b656;" parent="1" vertex="1">
          <mxGeometry x="290" y="80" width="170" height="40" as="geometry" />
        </mxCell>
        <mxCell id="RVhePkTrO8jCvcdKn89n-3" value="&lt;font style=&quot;font-size: 16px;&quot;&gt;{X&lt;sub&gt;c&lt;/sub&gt;-1, X&lt;sub&gt;c-1&lt;/sub&gt;, ..., X&lt;sub&gt;1&lt;/sub&gt;, X&lt;sub&gt;0&lt;/sub&gt;}&lt;/font&gt;" style="ellipse;whiteSpace=wrap;html=1;fillColor=#e1d5e7;strokeColor=#9673a6;" parent="1" vertex="1">
          <mxGeometry x="550" y="60" width="173" height="40" as="geometry" />
        </mxCell>
        <mxCell id="RVhePkTrO8jCvcdKn89n-4" value="&lt;font style=&quot;font-size: 16px;&quot;&gt;{X&lt;sub&gt;c&lt;/sub&gt;,X&lt;sub&gt;c-1&lt;/sub&gt;,...,X&lt;sub&gt;i&lt;/sub&gt;-1,...,X&lt;sub&gt;1&lt;/sub&gt;, X&lt;sub&gt;0&lt;/sub&gt;}&lt;/font&gt;" style="ellipse;whiteSpace=wrap;html=1;fillColor=#e1d5e7;strokeColor=#9673a6;" parent="1" vertex="1">
          <mxGeometry x="582.25" y="120" width="190" height="40" as="geometry" />
        </mxCell>
        <mxCell id="RVhePkTrO8jCvcdKn89n-5" value="&lt;font style=&quot;font-size: 16px;&quot;&gt;{X&lt;sub&gt;c&lt;/sub&gt;, X&lt;sub&gt;c-1&lt;/sub&gt;, ..., X&lt;sub&gt;1&lt;/sub&gt;-1, X&lt;sub&gt;0&lt;/sub&gt;}&lt;/font&gt;" style="ellipse;whiteSpace=wrap;html=1;fillColor=#e1d5e7;strokeColor=#9673a6;" parent="1" vertex="1">
          <mxGeometry x="623.25" y="170" width="180" height="40" as="geometry" />
        </mxCell>
        <mxCell id="RVhePkTrO8jCvcdKn89n-7" value="&lt;font style=&quot;font-size: 16px;&quot;&gt;{X&lt;sub&gt;c&lt;/sub&gt;,X&lt;sub&gt;c-1&lt;/sub&gt;,X&lt;sub style=&quot;border-color: var(--border-color);&quot;&gt;c-&lt;/sub&gt;&lt;span style=&quot;border-color: var(--border-color);&quot;&gt;&lt;sub&gt;2&lt;/sub&gt;,&lt;/span&gt;...,X&lt;sub&gt;1&lt;/sub&gt;+1, X&lt;sub&gt;0&lt;/sub&gt;-1}&lt;/font&gt;" style="ellipse;whiteSpace=wrap;html=1;fillColor=#f8cecc;gradientColor=#ea6b66;strokeColor=#b85450;" parent="1" vertex="1">
          <mxGeometry x="590" y="330" width="228.5" height="40" as="geometry" />
        </mxCell>
        <mxCell id="RVhePkTrO8jCvcdKn89n-11" value="&lt;font style=&quot;font-size: 16px;&quot;&gt;{X&lt;sub&gt;c&lt;/sub&gt;,X&lt;sub&gt;c-1&lt;/sub&gt;,X&lt;sub style=&quot;border-color: var(--border-color);&quot;&gt;c-&lt;/sub&gt;&lt;span style=&quot;border-color: var(--border-color);&quot;&gt;&lt;sub&gt;2&lt;/sub&gt;,&lt;/span&gt;...,X&lt;/font&gt;&lt;font style=&quot;&quot;&gt;&lt;span style=&quot;font-size: 13.3333px;&quot;&gt;&lt;sub&gt;2&lt;/sub&gt;&lt;/span&gt;&lt;span style=&quot;font-size: 16px;&quot;&gt;+1,X&lt;sub&gt;1&lt;/sub&gt;&lt;/span&gt;&lt;span style=&quot;font-size: 16px;&quot;&gt;-1,X&lt;sub&gt;0&lt;/sub&gt;}&lt;/span&gt;&lt;/font&gt;" style="ellipse;whiteSpace=wrap;html=1;fillColor=#f8cecc;gradientColor=#ea6b66;strokeColor=#b85450;" parent="1" vertex="1">
          <mxGeometry x="590" y="390" width="228.5" height="40" as="geometry" />
        </mxCell>
        <mxCell id="RVhePkTrO8jCvcdKn89n-12" value="&lt;font style=&quot;font-size: 16px;&quot;&gt;{X&lt;sub&gt;c&lt;/sub&gt;,X&lt;sub&gt;c-1&lt;/sub&gt;+1,X&lt;sub style=&quot;border-color: var(--border-color);&quot;&gt;c-&lt;/sub&gt;&lt;span style=&quot;border-color: var(--border-color);&quot;&gt;&lt;sub&gt;2&lt;/sub&gt;-1,&lt;/span&gt;...,&amp;nbsp;X&lt;sub&gt;0&lt;/sub&gt;}&lt;/font&gt;" style="ellipse;whiteSpace=wrap;html=1;fillColor=#f8cecc;gradientColor=#ea6b66;strokeColor=#b85450;" parent="1" vertex="1">
          <mxGeometry x="570" y="480" width="228.5" height="40" as="geometry" />
        </mxCell>
        <mxCell id="RVhePkTrO8jCvcdKn89n-13" value="&lt;font style=&quot;font-size: 16px;&quot;&gt;{X&lt;sub&gt;c&lt;/sub&gt;+1,X&lt;sub&gt;c-1&lt;/sub&gt;-1,X&lt;sub style=&quot;border-color: var(--border-color);&quot;&gt;c-&lt;/sub&gt;&lt;span style=&quot;border-color: var(--border-color);&quot;&gt;&lt;sub&gt;2&lt;/sub&gt;,&lt;/span&gt;..., X&lt;sub&gt;0&lt;/sub&gt;}&lt;/font&gt;" style="ellipse;whiteSpace=wrap;html=1;fillColor=#f8cecc;gradientColor=#ea6b66;strokeColor=#b85450;" parent="1" vertex="1">
          <mxGeometry x="530" y="565" width="228.5" height="40" as="geometry" />
        </mxCell>
        <mxCell id="RVhePkTrO8jCvcdKn89n-14" value="&lt;font style=&quot;font-size: 16px;&quot;&gt;{X&lt;sub&gt;c&lt;/sub&gt;,X&lt;sub&gt;c-1&lt;/sub&gt;,X&lt;sub style=&quot;border-color: var(--border-color);&quot;&gt;c-&lt;/sub&gt;&lt;span style=&quot;border-color: var(--border-color);&quot;&gt;&lt;sub&gt;2&lt;/sub&gt;,&lt;/span&gt;...,X&lt;sub&gt;1&lt;/sub&gt;-1, X&lt;sub&gt;0&lt;/sub&gt;+1}&lt;/font&gt;" style="ellipse;whiteSpace=wrap;html=1;fillColor=#647687;strokeColor=#314354;fontColor=#ffffff;" parent="1" vertex="1">
          <mxGeometry x="116.5" y="605" width="228.5" height="40" as="geometry" />
        </mxCell>
        <mxCell id="RVhePkTrO8jCvcdKn89n-15" value="&lt;font style=&quot;font-size: 16px;&quot;&gt;{X&lt;sub&gt;c&lt;/sub&gt;,X&lt;sub&gt;c-1&lt;/sub&gt;,...,X&lt;sub style=&quot;border-color: var(--border-color);&quot;&gt;i&lt;/sub&gt;&lt;span style=&quot;border-color: var(--border-color);&quot;&gt;-1&lt;/span&gt;&lt;span style=&quot;border-color: var(--border-color);&quot;&gt;,&lt;/span&gt;X&lt;sub&gt;i-1&lt;/sub&gt;+1,...,X&lt;sub&gt;1&lt;/sub&gt;,X&lt;sub&gt;0&lt;/sub&gt;}&lt;/font&gt;" style="ellipse;whiteSpace=wrap;html=1;fillColor=#647687;fontColor=#ffffff;strokeColor=#314354;" parent="1" vertex="1">
          <mxGeometry x="51.5" y="525" width="228.5" height="40" as="geometry" />
        </mxCell>
        <mxCell id="RVhePkTrO8jCvcdKn89n-16" value="&lt;font style=&quot;font-size: 16px;&quot;&gt;{X&lt;sub&gt;c&lt;/sub&gt;,X&lt;sub&gt;c-1&lt;/sub&gt;-1,X&lt;sub style=&quot;border-color: var(--border-color);&quot;&gt;c-&lt;/sub&gt;&lt;span style=&quot;border-color: var(--border-color);&quot;&gt;&lt;sub&gt;2&lt;/sub&gt;+1,&lt;/span&gt;...,&amp;nbsp;X&lt;sub&gt;0&lt;/sub&gt;}&lt;/font&gt;" style="ellipse;whiteSpace=wrap;html=1;fillColor=#647687;fontColor=#ffffff;strokeColor=#314354;" parent="1" vertex="1">
          <mxGeometry x="20" y="440" width="228.5" height="40" as="geometry" />
        </mxCell>
        <mxCell id="RVhePkTrO8jCvcdKn89n-17" value="&lt;font style=&quot;font-size: 16px;&quot;&gt;{X&lt;sub&gt;c&lt;/sub&gt;-1,X&lt;sub&gt;c-1+&lt;/sub&gt;1&lt;span style=&quot;border-color: var(--border-color);&quot;&gt;,&lt;/span&gt;...,&amp;nbsp;X&lt;sub&gt;0&lt;/sub&gt;}&lt;/font&gt;" style="ellipse;whiteSpace=wrap;html=1;fillColor=#647687;fontColor=#ffffff;strokeColor=#314354;" parent="1" vertex="1">
          <mxGeometry x="10" y="355" width="228.5" height="40" as="geometry" />
        </mxCell>
        <mxCell id="RVhePkTrO8jCvcdKn89n-18" value="&lt;font style=&quot;font-size: 16px;&quot;&gt;{X&lt;sub&gt;c&lt;/sub&gt;,X&lt;sub&gt;c-1&lt;/sub&gt;,X&lt;sub style=&quot;border-color: var(--border-color);&quot;&gt;c-&lt;/sub&gt;&lt;span style=&quot;border-color: var(--border-color);&quot;&gt;&lt;sub&gt;2&lt;/sub&gt;,&lt;/span&gt;...,&amp;nbsp;X&lt;sub&gt;0&lt;/sub&gt;-1}&lt;/font&gt;" style="ellipse;whiteSpace=wrap;html=1;fillColor=#ffcd28;strokeColor=#d79b00;gradientColor=#ffa500;" parent="1" vertex="1">
          <mxGeometry y="200" width="228.5" height="40" as="geometry" />
        </mxCell>
        <mxCell id="RVhePkTrO8jCvcdKn89n-21" value="Î»" style="text;html=1;strokeColor=none;fillColor=none;align=center;verticalAlign=middle;whiteSpace=wrap;rounded=0;fontSize=16;" parent="1" vertex="1">
          <mxGeometry x="345" y="210" width="60" height="30" as="geometry" />
        </mxCell>
        <mxCell id="RVhePkTrO8jCvcdKn89n-29" value="X&lt;sub&gt;c&lt;/sub&gt;*&lt;sub&gt;&amp;nbsp;&lt;/sub&gt;Î¸" style="text;html=1;strokeColor=none;fillColor=none;align=center;verticalAlign=middle;whiteSpace=wrap;rounded=0;fontSize=16;" parent="1" vertex="1">
          <mxGeometry x="520" y="90" width="60" height="30" as="geometry" />
        </mxCell>
        <mxCell id="RVhePkTrO8jCvcdKn89n-30" value="X&lt;sub&gt;i&lt;/sub&gt;*&lt;sub&gt;&amp;nbsp;&lt;/sub&gt;Î¸" style="text;html=1;strokeColor=none;fillColor=none;align=center;verticalAlign=middle;whiteSpace=wrap;rounded=0;fontSize=16;" parent="1" vertex="1">
          <mxGeometry x="530" y="150" width="60" height="30" as="geometry" />
        </mxCell>
        <mxCell id="RVhePkTrO8jCvcdKn89n-31" value="X&lt;sub&gt;1&lt;/sub&gt;*&lt;sub&gt;&amp;nbsp;&lt;/sub&gt;Î¸" style="text;html=1;strokeColor=none;fillColor=none;align=center;verticalAlign=middle;whiteSpace=wrap;rounded=0;fontSize=16;" parent="1" vertex="1">
          <mxGeometry x="560" y="210" width="60" height="30" as="geometry" />
        </mxCell>
        <mxCell id="RVhePkTrO8jCvcdKn89n-39" value="&lt;span style=&quot;color: rgb(58, 58, 58); font-family: -apple-system, system-ui, BlinkMacSystemFont, &amp;quot;Segoe UI&amp;quot;, Helvetica, Arial, sans-serif, &amp;quot;Apple Color Emoji&amp;quot;, &amp;quot;Segoe UI Emoji&amp;quot;, &amp;quot;Segoe UI Symbol&amp;quot;; font-size: 17px; font-style: normal; font-variant-ligatures: normal; font-variant-caps: normal; font-weight: 400; letter-spacing: normal; orphans: 2; text-align: start; text-indent: 0px; text-transform: none; widows: 2; word-spacing: 0px; -webkit-text-stroke-width: 0px; background-color: rgb(255, 255, 255); text-decoration-thickness: initial; text-decoration-style: initial; text-decoration-color: initial; float: none; display: inline !important;&quot;&gt;Ï&lt;sub&gt;0&lt;/sub&gt;&lt;/span&gt;" style="text;html=1;strokeColor=none;fillColor=none;align=center;verticalAlign=middle;whiteSpace=wrap;rounded=0;fontSize=16;" parent="1" vertex="1">
          <mxGeometry x="550" y="360" width="60" height="30" as="geometry" />
        </mxCell>
        <mxCell id="RVhePkTrO8jCvcdKn89n-40" style="edgeStyle=orthogonalEdgeStyle;curved=1;rounded=0;sketch=0;orthogonalLoop=1;jettySize=auto;html=1;exitX=0.5;exitY=1;exitDx=0;exitDy=0;shadow=0;fontSize=16;" parent="1" source="RVhePkTrO8jCvcdKn89n-39" target="RVhePkTrO8jCvcdKn89n-39" edge="1">
          <mxGeometry relative="1" as="geometry" />
        </mxCell>
        <mxCell id="RVhePkTrO8jCvcdKn89n-41" value="&lt;span style=&quot;color: rgb(58, 58, 58); font-family: -apple-system, system-ui, BlinkMacSystemFont, &amp;quot;Segoe UI&amp;quot;, Helvetica, Arial, sans-serif, &amp;quot;Apple Color Emoji&amp;quot;, &amp;quot;Segoe UI Emoji&amp;quot;, &amp;quot;Segoe UI Symbol&amp;quot;; font-size: 17px; font-style: normal; font-variant-ligatures: normal; font-variant-caps: normal; font-weight: 400; letter-spacing: normal; orphans: 2; text-align: start; text-indent: 0px; text-transform: none; widows: 2; word-spacing: 0px; -webkit-text-stroke-width: 0px; background-color: rgb(255, 255, 255); text-decoration-thickness: initial; text-decoration-style: initial; text-decoration-color: initial; float: none; display: inline !important;&quot;&gt;Ï&lt;/span&gt;&lt;span style=&quot;color: rgb(58, 58, 58); font-family: -apple-system, system-ui, BlinkMacSystemFont, &amp;quot;Segoe UI&amp;quot;, Helvetica, Arial, sans-serif, &amp;quot;Apple Color Emoji&amp;quot;, &amp;quot;Segoe UI Emoji&amp;quot;, &amp;quot;Segoe UI Symbol&amp;quot;; font-style: normal; font-variant-ligatures: normal; font-variant-caps: normal; font-weight: 400; letter-spacing: normal; orphans: 2; text-align: start; text-indent: 0px; text-transform: none; widows: 2; word-spacing: 0px; -webkit-text-stroke-width: 0px; background-color: rgb(255, 255, 255); text-decoration-thickness: initial; text-decoration-style: initial; text-decoration-color: initial; float: none; display: inline !important; font-size: 14.1667px;&quot;&gt;1&lt;/span&gt;" style="text;html=1;strokeColor=none;fillColor=none;align=center;verticalAlign=middle;whiteSpace=wrap;rounded=0;fontSize=16;" parent="1" vertex="1">
          <mxGeometry x="530" y="430" width="60" height="30" as="geometry" />
        </mxCell>
        <mxCell id="RVhePkTrO8jCvcdKn89n-44" value="&lt;span style=&quot;color: rgb(58, 58, 58); font-family: -apple-system, system-ui, BlinkMacSystemFont, &amp;quot;Segoe UI&amp;quot;, Helvetica, Arial, sans-serif, &amp;quot;Apple Color Emoji&amp;quot;, &amp;quot;Segoe UI Emoji&amp;quot;, &amp;quot;Segoe UI Symbol&amp;quot;; font-size: 17px; font-style: normal; font-variant-ligatures: normal; font-variant-caps: normal; font-weight: 400; letter-spacing: normal; orphans: 2; text-align: start; text-indent: 0px; text-transform: none; widows: 2; word-spacing: 0px; -webkit-text-stroke-width: 0px; background-color: rgb(255, 255, 255); text-decoration-thickness: initial; text-decoration-style: initial; text-decoration-color: initial; float: none; display: inline !important;&quot;&gt;Ï&lt;sub&gt;c-2&lt;/sub&gt;&lt;/span&gt;" style="text;html=1;strokeColor=none;fillColor=none;align=center;verticalAlign=middle;whiteSpace=wrap;rounded=0;fontSize=16;" parent="1" vertex="1">
          <mxGeometry x="510" y="500" width="60" height="30" as="geometry" />
        </mxCell>
        <mxCell id="RVhePkTrO8jCvcdKn89n-47" value="&lt;span style=&quot;color: rgb(58, 58, 58); font-family: -apple-system, system-ui, BlinkMacSystemFont, &amp;quot;Segoe UI&amp;quot;, Helvetica, Arial, sans-serif, &amp;quot;Apple Color Emoji&amp;quot;, &amp;quot;Segoe UI Emoji&amp;quot;, &amp;quot;Segoe UI Symbol&amp;quot;; font-size: 17px; font-style: normal; font-variant-ligatures: normal; font-variant-caps: normal; font-weight: 400; letter-spacing: normal; orphans: 2; text-align: start; text-indent: 0px; text-transform: none; widows: 2; word-spacing: 0px; -webkit-text-stroke-width: 0px; background-color: rgb(255, 255, 255); text-decoration-thickness: initial; text-decoration-style: initial; text-decoration-color: initial; float: none; display: inline !important;&quot;&gt;Ï&lt;sub&gt;c-1&lt;/sub&gt;&lt;/span&gt;" style="text;html=1;strokeColor=none;fillColor=none;align=center;verticalAlign=middle;whiteSpace=wrap;rounded=0;fontSize=16;" parent="1" vertex="1">
          <mxGeometry x="480" y="605" width="60" height="30" as="geometry" />
        </mxCell>
        <mxCell id="RVhePkTrO8jCvcdKn89n-56" value="P&lt;a style=&quot;text-decoration-line: inherit; color: rgb(32, 33, 34); background: none rgb(248, 249, 250); cursor: inherit; font-family: sans-serif;&quot; class=&quot;mw-selflink selflink&quot;&gt;&lt;font style=&quot;font-size: 13.3333px;&quot;&gt;&lt;sub&gt;Ï&lt;/sub&gt;*X&lt;sub&gt;1&lt;/sub&gt;&lt;/font&gt;&lt;/a&gt;" style="text;html=1;strokeColor=none;fillColor=none;align=center;verticalAlign=middle;whiteSpace=wrap;rounded=0;fontSize=16;" parent="1" vertex="1">
          <mxGeometry x="320" y="645" width="60" height="30" as="geometry" />
        </mxCell>
        <mxCell id="RVhePkTrO8jCvcdKn89n-57" value="P&lt;a style=&quot;text-decoration-line: inherit; color: rgb(32, 33, 34); background: none rgb(248, 249, 250); cursor: inherit; font-family: sans-serif;&quot; class=&quot;mw-selflink selflink&quot;&gt;&lt;font style=&quot;font-size: 13.3333px;&quot;&gt;&lt;sub&gt;Ï&lt;/sub&gt;*X&lt;sub&gt;i&lt;/sub&gt;&lt;/font&gt;&lt;/a&gt;" style="text;html=1;strokeColor=none;fillColor=none;align=center;verticalAlign=middle;whiteSpace=wrap;rounded=0;fontSize=16;" parent="1" vertex="1">
          <mxGeometry x="290" y="550" width="60" height="30" as="geometry" />
        </mxCell>
        <mxCell id="RVhePkTrO8jCvcdKn89n-58" value="P&lt;a style=&quot;text-decoration-line: inherit; color: rgb(32, 33, 34); background: none rgb(248, 249, 250); cursor: inherit; font-family: sans-serif;&quot; class=&quot;mw-selflink selflink&quot;&gt;&lt;font style=&quot;font-size: 13.3333px;&quot;&gt;&lt;sub&gt;Ï&lt;/sub&gt;*X&lt;sub&gt;c-1&lt;/sub&gt;&lt;/font&gt;&lt;/a&gt;" style="text;html=1;strokeColor=none;fillColor=none;align=center;verticalAlign=middle;whiteSpace=wrap;rounded=0;fontSize=16;" parent="1" vertex="1">
          <mxGeometry x="248.5" y="460" width="60" height="30" as="geometry" />
        </mxCell>
        <mxCell id="RVhePkTrO8jCvcdKn89n-59" value="P&lt;a style=&quot;text-decoration-line: inherit; color: rgb(32, 33, 34); background: none rgb(248, 249, 250); cursor: inherit; font-family: sans-serif;&quot; class=&quot;mw-selflink selflink&quot;&gt;&lt;font style=&quot;font-size: 13.3333px;&quot;&gt;&lt;sub&gt;Ï&lt;/sub&gt;*X&lt;sub&gt;c&lt;/sub&gt;&lt;/font&gt;&lt;/a&gt;" style="text;html=1;strokeColor=none;fillColor=none;align=center;verticalAlign=middle;whiteSpace=wrap;rounded=0;fontSize=16;" parent="1" vertex="1">
          <mxGeometry x="238.5" y="380" width="60" height="30" as="geometry" />
        </mxCell>
        <mxCell id="G6xvqGJpNPAE19BfYJmV-1" value="&lt;sub style=&quot;border-color: var(--border-color);&quot;&gt;&amp;nbsp;&lt;/sub&gt;&lt;span style=&quot;font-size: 16px;&quot;&gt;&lt;font style=&quot;vertical-align: inherit;&quot;&gt;&lt;font style=&quot;vertical-align: inherit;&quot;&gt;Î¸&lt;/font&gt;&lt;/font&gt;&lt;sub&gt;&lt;font style=&quot;vertical-align: inherit;&quot;&gt;&lt;font style=&quot;vertical-align: inherit;&quot;&gt;0&lt;/font&gt;&lt;/font&gt;&lt;/sub&gt;&lt;font style=&quot;vertical-align: inherit;&quot;&gt;&lt;font style=&quot;vertical-align: inherit;&quot;&gt; +&lt;/font&gt;&lt;/font&gt;&lt;/span&gt;&lt;font style=&quot;vertical-align: inherit;&quot;&gt;&lt;font style=&quot;vertical-align: inherit;&quot;&gt;&amp;nbsp;X&lt;font face=&quot;sans-serif&quot; color=&quot;#202122&quot;&gt;&lt;span style=&quot;font-size: 11.1111px; background-color: rgb(248, 249, 250);&quot;&gt;0&lt;/span&gt;&lt;/font&gt;&lt;/font&gt;&lt;/font&gt;" style="text;html=1;strokeColor=none;fillColor=none;align=center;verticalAlign=middle;whiteSpace=wrap;rounded=0;fontSize=13.3333;" vertex="1" parent="1">
          <mxGeometry x="51.5" y="260" width="60" height="30" as="geometry" />
        </mxCell>
      </root>
    </mxGraphModel>
  </diagram>
</mxfile>
